<?xml version="1.0" standalone="no"?>
<!DOCTYPE svg PUBLIC "-//W3C//DTD SVG 20010904//EN"
 "http://www.w3.org/TR/2001/REC-SVG-20010904/DTD/svg10.dtd">
<svg version="1.0" xmlns="http://www.w3.org/2000/svg"
 width="2048.000000pt" height="2048.000000pt" viewBox="0 0 2048.000000 2048.000000"
 preserveAspectRatio="xMidYMid meet">
<metadata>
Created by potrace 1.11, written by Peter Selinger 2001-2013
</metadata>
<g transform="translate(0.000000,2048.000000) scale(0.100000,-0.100000)"
fill="#000000" stroke="none">
<path d="M4609 14325 c-2 -2 -69 -6 -149 -9 -149 -5 -191 -10 -247 -27 -18 -6
-37 -8 -43 -4 -5 3 -10 1 -10 -4 0 -6 -8 -11 -19 -11 -25 0 -187 -63 -284
-111 -58 -28 -151 -87 -197 -124 -48 -38 -180 -178 -185 -196 -4 -11 -10 -19
-14 -19 -21 0 -160 -256 -176 -325 -2 -5 -11 -39 -20 -75 -27 -102 -30 -126
-29 -275 1 -141 16 -235 61 -370 31 -96 131 -305 145 -305 4 0 8 -5 8 -11 0
-19 66 -105 156 -205 65 -71 245 -264 312 -333 77 -81 89 -115 46 -136 -13 -7
-540 -10 -1593 -10 l-1572 1 1 -71 c1 -177 2 -321 1 -335 -1 -8 0 -37 0 -65 1
-27 1 -57 1 -65 -1 -8 -1 -51 -1 -95 0 -44 0 -87 0 -95 -1 -8 0 -37 0 -65 1
-27 1 -57 1 -65 -1 -8 -1 -98 -1 -200 1 -166 0 -240 -3 -259 0 -3 0 -22 1 -41
l1 -35 1947 1 c1072 0 1968 4 1993 8 25 4 70 12 100 18 30 6 60 11 67 12 7 1
16 5 19 9 4 4 14 7 21 7 17 0 176 61 183 71 3 3 16 10 30 14 14 4 27 11 30 14
3 4 25 19 50 33 102 59 244 189 310 283 19 28 38 52 41 55 9 8 88 154 88 163
0 4 6 18 13 30 25 38 71 194 82 272 2 17 5 30 6 30 8 0 19 302 11 319 -2 5 -5
21 -7 35 -7 82 -24 174 -42 221 -3 8 -7 26 -9 40 -2 14 -8 27 -14 28 -5 2 -9
10 -9 18 0 28 -68 160 -125 245 -32 46 -60 86 -64 89 -3 3 -31 34 -61 70 -30
36 -70 82 -90 102 -19 20 -73 78 -120 129 -47 51 -107 116 -135 144 -140 145
-147 153 -135 175 6 11 14 21 18 21 4 1 415 2 914 3 719 1 909 -2 913 -11 2
-7 1 -13 -3 -13 -4 0 -5 -27 -2 -60 3 -33 2 -60 -2 -60 -5 0 -4 -9 2 -20 6
-11 7 -20 2 -20 -5 0 -6 -18 -2 -40 4 -22 3 -40 -2 -40 -5 0 -4 -9 2 -20 8
-14 8 -20 0 -20 -8 0 -8 -6 0 -20 8 -14 8 -20 0 -20 -8 0 -8 -6 0 -20 6 -11 7
-20 3 -20 -4 0 -6 -36 -3 -80 3 -44 1 -80 -3 -80 -4 0 -3 -9 3 -20 6 -11 7
-20 3 -20 -4 0 -6 -36 -3 -80 3 -44 1 -80 -3 -80 -4 0 -3 -9 3 -20 8 -14 8
-20 0 -20 -8 0 -8 -6 0 -20 8 -14 8 -20 0 -20 -8 0 -8 -6 0 -20 8 -14 8 -20 0
-20 -8 0 -8 -6 0 -20 8 -14 8 -20 0 -20 -8 0 -8 -6 0 -20 8 -14 8 -20 0 -20
-8 0 -8 -6 0 -20 8 -14 8 -20 0 -20 -8 0 -8 -6 0 -20 6 -11 7 -20 3 -20 -4 0
-6 -36 -3 -80 3 -44 1 -80 -3 -80 -4 0 -3 -9 3 -20 6 -11 7 -20 3 -20 -4 0 -6
-36 -3 -80 3 -44 1 -80 -3 -80 -4 0 -3 -9 3 -20 8 -14 8 -20 0 -20 -8 0 -8 -6
0 -20 8 -14 8 -20 0 -20 -8 0 -8 -6 0 -20 6 -11 7 -20 3 -20 -4 0 -6 -36 -3
-80 3 -44 1 -80 -3 -80 -4 0 -3 -9 3 -20 6 -11 7 -20 3 -20 -4 0 -6 -63 -3
-140 3 -77 1 -140 -3 -140 -4 0 -3 -9 3 -20 6 -11 7 -20 3 -20 -4 0 -6 -45 -3
-100 3 -55 1 -100 -3 -100 -4 0 -3 -9 3 -20 6 -11 7 -20 2 -20 -4 0 -5 -27 -2
-60 3 -33 2 -60 -2 -60 -5 0 -4 -9 2 -20 6 -11 7 -20 2 -20 -5 0 -6 -18 -2
-40 4 -22 3 -40 -2 -40 -5 0 -4 -9 2 -20 8 -14 8 -20 0 -20 -8 0 -8 -6 0 -20
8 -14 8 -20 0 -20 -8 0 -8 -6 0 -20 8 -14 8 -20 0 -20 -7 0 -8 -6 -1 -17 8
-17 51 -18 693 -17 375 1 689 2 697 3 7 1 11 7 7 16 -3 8 0 15 6 15 7 0 7 4
-1 13 -6 8 -8 17 -4 20 3 4 5 26 4 49 -6 115 -5 178 1 178 4 0 4 10 -1 22 -4
13 -5 35 0 50 4 16 5 28 1 28 -6 0 -7 134 -1 150 1 3 1 9 0 14 -5 26 -4 134 2
142 3 6 2 16 -3 23 -4 8 -4 27 0 42 5 16 6 29 2 29 -6 0 -7 56 -2 70 1 3 2 9
1 14 -5 26 -4 134 2 142 3 6 2 16 -3 23 -4 8 -4 27 0 42 5 16 6 29 2 29 -8 0
-7 133 1 147 3 5 2 15 -3 22 -4 8 -4 27 0 42 5 16 6 29 2 29 -9 0 -7 194 2
209 4 6 4 11 -1 11 -9 0 -9 67 0 76 4 4 2 15 -4 25 -7 14 -6 19 3 19 9 0 9 3
1 11 -8 8 -8 20 -3 35 6 14 5 24 -1 26 -5 2 -6 15 0 36 5 17 7 32 3 32 -9 0
-7 194 2 209 4 6 4 11 -1 11 -9 0 -9 67 0 76 4 4 2 15 -4 25 -7 14 -6 19 3 19
9 0 9 3 1 11 -8 8 -8 20 -3 35 6 14 5 24 -1 26 -5 2 -6 15 0 36 5 17 7 32 3
32 -9 0 -7 194 2 209 4 6 4 11 -1 11 -4 0 -6 27 -5 61 3 47 7 59 18 55 8 -3
14 -1 14 5 0 6 5 7 12 3 17 -11 58 -11 58 -1 0 6 5 6 13 0 6 -5 39 -8 72 -7
33 1 71 3 85 3 14 0 41 1 60 2 45 1 51 1 75 -4 11 -2 28 0 38 5 9 5 17 5 17 0
0 -10 73 -8 90 3 9 6 11 4 5 -4 -6 -10 -3 -11 13 -2 12 6 23 8 25 4 6 -10 191
-8 206 1 6 4 11 4 11 -1 0 -10 133 -8 149 1 6 4 11 3 11 -1 0 -10 72 -9 88 1
6 3 13 3 15 -1 3 -5 34 -7 69 -6 34 1 74 2 88 2 14 0 41 1 60 2 45 1 51 1 75
-4 11 -2 28 0 38 5 9 5 17 5 17 0 0 -10 73 -8 90 3 9 6 11 4 5 -4 -6 -10 -3
-11 13 -2 12 6 23 8 25 4 4 -6 102 -9 138 -4 3 1 5 47 5 104 -1 56 2 108 7
115 5 6 6 12 1 12 -11 0 -11 271 0 288 4 7 4 12 -1 12 -8 0 -8 107 0 178 2 17
1 32 -2 32 -9 0 -6 144 3 158 4 7 4 12 -1 12 -10 0 -10 211 1 228 4 7 3 12 -1
12 -5 0 -8 27 -7 60 1 49 -2 62 -16 70 -9 5 -19 7 -22 5 -2 -2 -19 -5 -38 -5
-39 -1 -207 -2 -230 -1 -8 0 -37 0 -65 0 -27 0 -57 0 -65 0 -8 0 -51 0 -95 0
-44 -1 -87 -1 -95 0 -8 0 -37 0 -65 0 -27 0 -57 0 -65 0 -8 0 -51 0 -95 0
-112 -1 -107 -1 -240 0 -66 0 -127 0 -135 0 -8 0 -58 0 -110 0 -52 0 -102 0
-110 0 -8 -1 -80 -1 -160 0 -80 0 -152 0 -160 0 -8 0 -42 0 -75 0 -33 0 -67 0
-75 0 -8 -1 -69 -1 -135 0 -66 0 -127 0 -135 0 -8 0 -58 0 -110 0 -52 0 -102
0 -110 0 -8 -1 -80 -1 -160 0 -80 0 -152 0 -160 0 -8 0 -42 0 -75 0 -33 0 -67
0 -75 0 -8 -1 -69 -1 -135 0 -66 0 -127 0 -135 0 -8 0 -58 0 -110 0 -52 0
-102 0 -110 0 -12 -1 -186 0 -265 0 -11 0 -56 0 -100 0 -44 -1 -87 -1 -95 0
-8 0 -37 0 -65 0 -27 0 -57 0 -65 0 -8 0 -51 0 -95 0 -44 0 -87 0 -95 0 -8 0
-37 0 -65 0 -27 0 -57 0 -65 0 -8 0 -51 0 -95 0 -44 -1 -87 -1 -95 0 -8 0 -37
0 -65 0 -27 0 -57 0 -65 0 -8 0 -51 0 -95 0 -44 0 -87 0 -95 0 -8 0 -37 0 -65
0 -27 0 -57 0 -65 0 -8 0 -51 0 -95 0 -44 -1 -91 0 -105 1 -14 1 -29 2 -35 1
-92 -2 -136 -2 -143 3 -5 3 -11 4 -13 1z"/>
<path d="M10745 14321 c-2 -2 -44 -3 -94 -2 -114 2 -102 16 -168 -204 -15 -49
-27 -92 -28 -95 -5 -22 -39 -132 -50 -161 -8 -20 -11 -39 -8 -43 4 -3 1 -6 -6
-6 -7 0 -10 -4 -7 -8 3 -5 -9 -51 -25 -103 -17 -52 -32 -101 -34 -109 -2 -8
-16 -53 -30 -100 -15 -47 -28 -92 -30 -100 -1 -8 -5 -22 -9 -30 -10 -23 -48
-153 -49 -167 0 -7 -3 -13 -7 -13 -3 0 -6 -8 -7 -17 0 -10 -17 -72 -38 -138
-20 -66 -38 -124 -40 -130 -1 -5 -5 -17 -8 -25 -5 -12 -37 -120 -42 -140 -1
-3 -7 -25 -15 -50 -7 -25 -14 -49 -16 -55 -1 -5 -9 -33 -19 -61 -9 -28 -18
-57 -19 -65 -2 -8 -6 -22 -10 -31 -4 -9 -9 -22 -10 -30 -2 -7 -6 -20 -9 -28
-3 -8 -7 -24 -10 -35 -3 -11 -17 -60 -32 -110 -15 -49 -28 -94 -30 -100 -1 -5
-8 -23 -15 -40 -7 -16 -13 -42 -14 -57 0 -16 -4 -28 -7 -28 -7 0 -24 -69 -21
-82 1 -5 -3 -8 -8 -8 -6 0 -10 -6 -9 -12 1 -7 0 -20 -4 -28 -9 -23 -188 -622
-192 -643 -2 -9 -7 -22 -10 -27 -3 -5 -8 -18 -10 -27 -2 -10 -15 -56 -30 -103
-14 -47 -27 -92 -29 -100 -2 -8 -25 -84 -51 -169 -26 -84 -49 -161 -50 -170
-2 -9 -4 -17 -5 -18 -2 -2 -4 -7 -5 -13 -1 -5 -4 -12 -5 -15 -1 -3 -4 -9 -5
-15 -1 -5 -3 -11 -5 -12 -1 -2 -3 -10 -5 -18 -2 -8 -11 -40 -20 -70 -28 -94
-29 -107 -9 -117 11 -5 322 -9 715 -8 725 1 729 1 729 41 0 7 6 33 14 56 16
50 111 355 127 409 7 20 15 43 20 50 6 11 128 14 656 14 356 1 657 -2 667 -5
20 -7 29 -30 146 -397 39 -121 56 -163 68 -164 10 -1 323 -2 697 -3 645 -1
681 0 698 17 13 13 15 22 8 31 -6 7 -8 16 -4 19 3 4 0 13 -7 22 -7 8 -9 15 -5
15 4 0 3 6 -3 13 -6 6 -11 17 -12 22 -6 26 -45 157 -105 350 -26 83 -51 166
-57 185 -6 19 -17 52 -24 73 -8 20 -11 37 -8 37 4 0 1 7 -6 15 -7 8 -9 15 -5
15 4 0 2 7 -5 15 -7 8 -9 15 -5 15 4 0 2 6 -4 14 -6 8 -11 18 -10 22 1 5 0 16
-4 24 -3 8 -22 69 -42 135 -21 66 -51 163 -68 215 -17 52 -31 102 -32 110 -2
15 -10 39 -25 75 -11 26 -24 78 -22 88 1 4 -3 7 -9 7 -5 0 -8 4 -5 8 3 5 -5
38 -18 73 -13 35 -24 67 -24 72 -3 18 -37 131 -69 227 -19 58 -36 114 -39 126
-2 12 -10 40 -19 63 -8 23 -14 42 -14 44 0 3 -10 34 -22 67 -5 14 -11 34 -13
45 -7 33 -165 535 -175 553 -4 10 -6 23 -4 30 3 7 0 18 -5 25 -6 7 -13 24 -16
37 -4 25 -11 48 -26 85 -4 11 -12 36 -18 55 -6 19 -24 82 -42 140 -17 58 -33
110 -34 115 -2 6 -4 12 -4 15 -1 3 -11 32 -22 65 -22 63 -24 68 -38 125 -5 20
-14 44 -19 55 -6 11 -11 23 -12 28 -1 4 -1 8 -2 10 0 1 -2 9 -4 17 -12 65 -99
309 -110 314 -12 4 -168 8 -235 5 -8 -1 -69 -1 -135 0 -66 0 -127 0 -135 0 -8
0 -58 0 -110 0 -52 0 -102 0 -110 0 -8 -1 -80 -1 -160 0 -80 0 -152 0 -160 0
-8 0 -80 0 -160 0 -80 0 -152 0 -160 0 -8 0 -42 0 -75 0 -33 0 -67 0 -75 0
-52 -2 -332 1 -413 4 -21 1 -40 0 -42 -2z m955 -1286 c7 -31 17 -58 22 -61 4
-3 8 -12 8 -21 0 -13 70 -247 87 -293 8 -19 11 -30 17 -58 3 -12 8 -27 11 -32
3 -5 8 -18 10 -27 5 -22 26 -93 59 -198 81 -264 85 -277 75 -299 -10 -21 -12
-21 -308 -21 -321 0 -334 2 -325 51 2 13 16 61 30 107 15 45 27 87 29 92 1 6
4 17 8 25 11 32 57 185 57 193 0 4 6 23 14 42 8 19 13 35 10 35 -3 0 -2 6 3
13 4 6 8 17 9 22 1 6 17 55 35 110 18 55 33 102 33 105 6 39 84 270 92 270 6
0 17 -25 24 -55z"/>
<path d="M14235 14320 l-40 -5 0 -1953 c0 -1075 3 -1959 7 -1965 5 -8 216 -11
777 -12 l769 0 1 515 c0 283 0 532 1 553 0 20 5 37 10 37 6 0 209 -199 453
-442 385 -386 453 -449 524 -491 44 -27 87 -49 94 -51 8 -1 28 -9 44 -18 52
-27 201 -71 280 -83 11 -1 36 -6 55 -10 19 -4 583 -8 1253 -9 1288 -1 1226 -3
1217 39 -1 6 -1 64 0 130 2 171 2 203 1 265 0 30 -1 62 0 70 0 8 0 69 0 135
-1 66 0 173 2 237 1 65 -2 118 -6 118 -5 0 -6 4 -2 9 3 6 5 77 5 158 -1 81 -1
168 0 193 1 24 -2 41 -6 37 -4 -4 -13 -2 -21 4 -7 6 -13 8 -13 3 0 -11 -212
-10 -228 0 -7 4 -12 4 -12 -1 0 -10 -212 -9 -228 1 -7 4 -12 4 -12 -1 0 -10
-212 -9 -228 1 -7 4 -12 4 -12 -1 0 -10 -52 -9 -68 1 -7 4 -12 4 -12 -1 0 -10
-212 -9 -228 1 -7 4 -12 4 -12 -1 0 -10 -52 -9 -68 1 -7 4 -12 4 -12 -1 0 -10
-212 -9 -228 1 -7 4 -12 4 -12 -1 0 -10 -52 -9 -68 1 -7 4 -12 4 -12 -1 0 -10
-212 -9 -228 1 -7 4 -12 4 -12 -1 0 -9 -84 -8 -99 2 -6 3 -11 2 -11 -2 0 -10
-53 -9 -69 2 -6 3 -11 1 -11 -6 0 -8 -4 -8 -15 1 -11 9 -15 9 -15 1 0 -7 -5
-9 -11 -5 -7 4 -30 9 -52 12 -116 13 -189 102 -115 140 49 25 86 49 103 65 9
9 22 17 30 17 7 0 15 7 19 15 3 8 12 15 20 15 8 0 16 3 18 8 2 4 21 20 43 37
22 16 48 36 59 45 36 29 121 116 151 154 17 21 35 44 40 50 9 11 17 24 47 79
7 12 15 24 18 27 5 5 43 81 45 90 0 3 9 28 19 55 33 91 31 85 41 125 12 52 26
132 30 173 6 56 6 276 1 303 -2 12 -7 39 -10 60 -19 123 -49 221 -104 334 -25
52 -49 97 -54 98 -4 2 -8 10 -8 18 0 8 -4 14 -10 14 -5 0 -10 5 -10 11 0 6 -6
17 -12 24 -7 8 -22 27 -33 42 -24 31 -167 178 -210 214 -71 59 -254 169 -281
169 -8 0 -14 5 -14 10 0 6 -8 10 -18 10 -10 0 -22 4 -28 9 -11 11 -178 64
-264 85 -113 27 -204 36 -380 35 -63 0 -140 1 -170 2 -30 0 -75 1 -100 0 -25
0 -110 0 -190 0 -80 1 -152 1 -160 0 -8 0 -40 0 -70 0 -30 0 -62 0 -70 0 -8 0
-64 0 -125 0 -60 1 -117 1 -125 0 -8 0 -51 0 -95 0 -44 0 -100 0 -125 0 -25 0
-110 0 -190 0 -80 1 -152 1 -160 0 -8 0 -40 0 -70 0 -30 0 -62 0 -70 0 -8 0
-64 0 -125 0 -60 1 -117 1 -125 0 -8 0 -51 0 -95 0 -44 0 -100 0 -125 0 -156
-1 -334 0 -339 2 -3 2 -24 0 -46 -3z m2444 -1128 c134 -45 202 -182 159 -323
-13 -44 -72 -119 -94 -119 -8 0 -14 -4 -14 -8 0 -26 -92 -32 -513 -32 -332 0
-438 3 -443 12 -10 16 -13 449 -3 469 7 14 53 16 441 14 288 -1 444 -6 467
-13z"/>
<path d="M810 10092 c-15 -5 -13 -19 14 -102 13 -41 36 -115 51 -165 63 -208
77 -252 92 -290 8 -22 14 -41 13 -43 -2 -3 48 -169 59 -197 5 -11 14 -40 21
-65 7 -25 19 -62 26 -82 8 -21 11 -38 8 -38 -4 0 -2 -6 4 -12 6 -7 11 -17 11
-23 2 -13 40 -145 48 -165 3 -8 5 -18 5 -22 -1 -5 3 -8 9 -8 5 0 8 -4 5 -9 -5
-8 4 -47 23 -96 5 -11 18 -54 30 -95 12 -41 25 -82 28 -90 3 -8 7 -19 8 -25 2
-5 13 -44 26 -85 13 -41 23 -81 22 -87 0 -7 4 -13 10 -13 6 0 8 -3 5 -6 -4 -3
0 -21 8 -40 8 -19 11 -34 8 -34 -4 0 -2 -6 4 -12 6 -7 10 -15 11 -18 0 -3 2
-12 5 -20 22 -67 101 -329 109 -365 1 -5 6 -15 9 -21 4 -6 9 -21 12 -35 2 -13
9 -36 14 -50 6 -15 8 -30 5 -33 -4 -3 -1 -6 6 -6 7 0 10 -3 8 -7 -3 -5 0 -19
5 -33 6 -14 12 -34 13 -45 2 -11 9 -33 16 -50 7 -16 13 -34 14 -40 0 -5 4 -17
7 -25 8 -19 89 -292 91 -305 1 -5 5 -12 9 -15 4 -3 9 -20 13 -37 3 -18 10 -45
16 -60 6 -15 13 -39 15 -52 3 -14 8 -29 12 -35 3 -6 8 -19 9 -29 2 -9 12 -45
24 -80 12 -34 22 -66 23 -72 1 -5 15 -50 30 -100 16 -49 28 -91 28 -92 -1 -2
7 -27 18 -55 11 -29 21 -63 23 -75 2 -12 6 -26 10 -29 4 -4 7 -17 7 -29 0 -12
3 -25 8 -29 4 -4 8 -12 8 -17 1 -5 3 -11 4 -14 1 -3 4 -9 5 -15 1 -5 4 -12 5
-15 1 -3 3 -8 4 -12 1 -8 6 -24 44 -148 8 -27 20 -53 26 -57 6 -4 304 -7 662
-7 l652 0 18 57 c10 31 19 59 19 62 5 22 30 105 45 150 30 89 111 350 115 369
2 9 10 34 19 54 8 20 13 37 11 37 -2 0 3 19 11 43 9 23 17 47 18 52 3 13 52
173 78 250 20 62 88 282 93 300 16 65 31 105 40 105 6 0 17 -21 24 -47 7 -27
22 -72 32 -101 10 -28 19 -54 19 -57 -1 -10 47 -171 65 -220 4 -11 9 -27 10
-35 2 -15 21 -81 32 -110 3 -8 7 -19 8 -25 2 -5 26 -86 55 -180 29 -93 53
-177 55 -185 2 -15 5 -23 21 -65 4 -11 9 -29 11 -39 2 -11 10 -40 19 -65 9
-25 17 -53 19 -61 2 -8 10 -37 18 -65 9 -27 28 -89 43 -136 l26 -87 665 0
c565 0 665 2 669 14 2 8 7 22 11 32 8 22 7 19 22 72 6 25 17 59 24 75 6 17 12
35 13 40 1 6 14 51 30 100 15 50 28 92 29 95 0 3 11 39 24 80 13 41 25 83 26
93 2 9 7 22 10 27 3 5 8 19 11 30 9 42 13 57 37 130 13 41 32 102 42 135 9 33
21 71 26 85 12 37 81 262 84 274 1 6 10 38 20 71 11 33 20 62 20 65 1 3 4 12
7 20 4 8 8 24 11 35 3 11 32 110 66 220 34 110 64 207 65 215 2 8 13 44 25 79
12 35 21 72 21 81 0 9 4 20 9 26 4 5 16 38 25 74 9 36 24 83 33 105 8 22 16
47 18 55 5 26 36 133 52 180 9 25 16 52 17 60 1 8 8 25 14 38 7 12 10 22 7 22
-3 0 2 16 10 36 8 20 12 40 9 45 -3 5 -1 9 3 9 5 0 9 8 10 18 1 9 10 44 22 77
11 33 32 101 46 150 14 50 29 97 32 105 3 8 7 20 9 27 1 7 11 41 23 75 11 35
22 72 24 83 1 11 6 25 9 31 4 6 9 22 12 36 2 15 10 36 16 48 6 12 9 24 6 27
-3 4 -2 11 3 17 5 6 16 36 24 66 22 79 41 143 72 240 52 164 60 201 48 208
-13 8 -1469 10 -1475 2 -5 -6 -78 -246 -84 -276 -2 -12 -10 -39 -18 -62 -8
-22 -12 -43 -9 -46 4 -3 2 -6 -4 -6 -5 0 -10 -6 -10 -12 0 -7 -6 -33 -13 -58
-8 -25 -14 -48 -16 -52 -1 -5 -2 -9 -4 -10 -1 -2 -3 -10 -5 -18 -1 -8 -12 -46
-25 -85 -12 -38 -23 -77 -25 -85 -2 -8 -10 -35 -18 -60 -13 -37 -32 -103 -43
-142 -1 -5 -2 -9 -4 -10 -2 -4 -10 -40 -12 -60 -1 -10 -6 -18 -10 -18 -4 0 -8
-7 -8 -16 0 -9 -5 -14 -12 -12 -12 4 -20 26 -98 278 -23 74 -48 152 -56 173
-8 20 -14 38 -13 40 0 1 -2 9 -5 17 -22 68 -38 124 -41 138 -2 9 -4 17 -5 17
-1 0 -3 7 -5 15 -2 8 -24 78 -48 155 -25 77 -49 152 -53 168 -3 15 -11 28 -18
28 -6 1 -372 2 -813 3 l-803 1 -9 -25 c-23 -60 -56 -180 -54 -197 0 -7 -2 -13
-6 -13 -4 0 -8 -6 -9 -12 0 -7 -3 -24 -7 -38 -3 -14 -8 -32 -10 -40 -2 -8 -4
-15 -5 -15 -1 0 -3 -7 -5 -15 -1 -8 -8 -35 -16 -60 -7 -25 -14 -49 -15 -55
-12 -40 -46 -163 -49 -175 -2 -8 -4 -15 -5 -15 -1 0 -3 -9 -5 -20 -2 -11 -11
-44 -19 -72 -9 -29 -23 -77 -32 -105 -8 -29 -17 -62 -19 -73 -2 -11 -4 -20 -5
-20 -1 0 -4 -9 -6 -20 -3 -11 -6 -24 -7 -30 -4 -16 -18 -35 -26 -35 -4 0 -15
28 -26 63 -10 34 -24 80 -31 102 -19 59 -38 129 -39 140 0 6 -3 15 -7 20 -3 6
-15 46 -27 90 -12 44 -24 87 -28 95 -3 8 -7 20 -8 25 -3 10 -50 169 -65 218
-5 15 -9 28 -9 30 0 1 -2 9 -5 17 -7 20 -39 134 -39 140 -1 3 -8 25 -17 50
l-16 45 -782 0 c-430 0 -786 -1 -792 -3z"/>
<path d="M7461 10088 c-11 -4 -24 -29 -35 -65 -9 -32 -22 -66 -27 -76 -5 -10
-7 -22 -4 -27 4 -6 2 -10 -3 -10 -5 0 -9 -6 -9 -13 0 -12 -31 -119 -85 -287
-16 -52 -31 -102 -33 -110 -2 -8 -12 -43 -23 -77 -11 -35 -18 -63 -15 -63 3 0
1 -6 -5 -12 -10 -13 -27 -77 -24 -90 1 -5 -3 -8 -9 -8 -6 0 -9 -7 -5 -15 3 -8
1 -15 -5 -15 -6 0 -7 -5 -4 -10 4 -6 1 -17 -5 -25 -7 -8 -10 -15 -6 -15 4 0 0
-13 -9 -30 -9 -16 -14 -30 -11 -30 4 0 -19 -79 -84 -287 -17 -54 -32 -107 -34
-119 -2 -11 -6 -27 -11 -34 -4 -7 -11 -26 -16 -44 -4 -17 -15 -56 -24 -86 -9
-30 -18 -62 -20 -70 -2 -8 -4 -15 -5 -15 -1 0 -3 -7 -5 -15 -4 -15 -112 -372
-121 -400 -3 -8 -5 -16 -5 -17 0 -2 -6 -21 -14 -43 -8 -22 -12 -40 -8 -40 3 0
1 -6 -5 -12 -5 -7 -13 -29 -17 -48 -4 -19 -12 -41 -17 -47 -6 -7 -8 -13 -4
-13 3 0 1 -12 -5 -27 -6 -16 -12 -36 -15 -47 -2 -10 -15 -55 -30 -100 -14 -44
-27 -88 -29 -96 -2 -8 -13 -46 -26 -85 -13 -38 -23 -78 -23 -87 1 -10 -3 -18
-9 -18 -6 0 -7 -3 -4 -7 4 -3 2 -12 -3 -19 -6 -6 -10 -16 -9 -20 1 -5 0 -16
-4 -24 -6 -17 -30 -90 -33 -105 -2 -5 -5 -20 -8 -33 -3 -12 -8 -27 -11 -32 -3
-5 -8 -18 -10 -27 -1 -10 -20 -72 -40 -138 -68 -223 -82 -274 -77 -280 3 -3 1
-5 -5 -5 -5 0 -10 -6 -10 -12 0 -7 -13 -53 -28 -103 -15 -49 -28 -94 -29 -100
-1 -5 -4 -14 -7 -20 -4 -5 -12 -34 -19 -63 -6 -28 -16 -55 -21 -58 -5 -3 -7
-10 -4 -15 4 -5 3 -15 -2 -21 -8 -14 -9 -17 -19 -70 -6 -33 -4 -38 17 -43 13
-3 338 -4 723 -3 l699 3 27 83 c15 45 25 82 23 82 -2 0 1 9 7 21 6 11 13 29
15 39 6 31 39 135 45 140 3 3 6 11 8 18 1 7 4 20 6 30 1 9 8 28 13 42 6 14 14
41 18 60 4 19 13 38 19 42 6 4 307 8 669 8 l658 0 20 -47 c12 -27 22 -55 24
-63 2 -8 20 -67 40 -130 20 -63 44 -137 52 -165 8 -27 17 -57 21 -65 3 -8 6
-18 7 -22 2 -5 4 -11 5 -15 1 -5 2 -11 1 -15 0 -4 7 -17 16 -27 16 -19 34 -20
705 -20 379 0 695 2 703 5 18 7 20 45 3 63 -9 9 -9 12 -1 7 9 -5 9 2 0 26 -7
18 -14 35 -17 38 -3 3 -7 14 -8 25 -4 22 -34 122 -63 205 -10 30 -20 64 -22
75 -1 11 -6 25 -9 31 -4 6 -9 21 -12 35 -2 13 -14 53 -26 89 -12 36 -23 70
-24 75 -2 11 -46 153 -83 266 -13 43 -26 83 -27 90 -1 8 -11 39 -21 69 -11 30
-20 57 -20 60 -1 3 -8 25 -15 50 -7 25 -14 48 -16 53 -1 4 -3 9 -4 12 -1 3 -3
8 -4 13 -2 4 -9 27 -16 52 -7 25 -14 47 -14 50 -1 5 -35 114 -44 140 -3 8 -6
17 -7 20 0 3 -13 43 -28 90 -15 47 -27 87 -27 90 0 3 -11 37 -24 76 -14 39
-27 82 -30 97 -2 14 -9 34 -14 44 -6 10 -10 21 -11 26 -1 4 -1 8 -2 10 0 1 -2
9 -4 17 -6 27 -57 194 -66 215 -4 11 -24 74 -44 140 -20 66 -39 127 -42 135
-3 8 -5 19 -4 23 0 4 -6 21 -14 37 -9 16 -15 32 -15 35 0 3 0 6 -1 8 0 1 -3
16 -5 32 -3 17 -9 34 -15 40 -5 5 -9 19 -9 30 0 12 -3 25 -7 29 -5 4 -8 11 -9
14 -1 11 -25 96 -31 112 -3 8 -7 20 -9 25 -3 14 -84 277 -90 295 -3 8 -4 15
-3 15 1 0 -5 16 -13 35 -8 19 -16 40 -17 45 -1 6 -7 28 -13 50 -6 22 -12 42
-13 45 -1 6 -39 127 -121 387 -30 95 -60 176 -67 180 -15 9 -2131 11 -2156 1z
m1173 -1393 c1 -5 9 -32 18 -60 49 -154 80 -256 82 -267 1 -7 4 -17 7 -23 3
-5 11 -30 19 -55 7 -25 21 -70 31 -100 10 -30 19 -64 21 -75 2 -11 6 -22 10
-25 4 -3 9 -17 11 -30 11 -60 20 -90 29 -90 5 0 7 -4 3 -9 -3 -6 3 -34 13 -63
14 -40 16 -59 9 -76 l-10 -22 -304 0 -303 0 -12 24 c-6 14 -7 33 -3 43 5 10 9
20 10 23 1 3 7 25 14 50 7 25 26 86 41 135 16 50 38 122 50 160 11 39 24 77
27 85 3 8 8 24 10 35 2 11 6 27 10 35 3 8 5 21 4 28 -1 6 4 12 10 12 7 0 10 3
6 6 -3 3 -1 18 5 33 5 14 12 35 14 46 7 27 10 37 17 55 8 21 57 183 57 192 0
4 9 28 20 53 11 25 17 45 14 45 -3 0 -2 6 2 12 7 10 57 -121 68 -177z"/>
<path d="M11169 10075 c-5 -112 -1 -3894 4 -3902 10 -15 1534 -15 1544 0 8 13
8 191 0 204 -3 5 -2 15 3 23 5 8 5 22 -1 32 -5 10 -6 18 -2 18 4 0 8 86 8 190
0 105 -4 190 -8 190 -5 0 -5 5 -1 11 3 6 6 103 6 215 1 113 4 207 8 209 7 4
779 -763 780 -775 1 -8 163 -139 190 -154 126 -68 213 -105 280 -121 8 -1 35
-8 59 -15 141 -38 149 -38 1785 -38 906 0 1617 4 1651 9 33 5 71 11 85 13 38
6 111 25 153 41 20 8 40 15 45 16 32 6 216 97 220 110 2 5 10 9 18 9 8 0 14 4
14 9 0 5 6 11 13 13 21 5 94 66 169 141 63 64 158 188 158 207 0 4 3 10 8 12
20 8 122 256 136 328 2 14 7 32 10 40 17 51 32 421 17 445 -3 6 -6 19 -7 30
-3 85 -80 321 -126 387 -10 14 -18 29 -18 32 0 8 -68 111 -92 140 -36 45 -164
192 -188 217 -14 15 -68 73 -120 129 -52 57 -132 142 -177 189 -83 86 -95 109
-70 130 10 8 288 12 986 13 l973 3 -2 240 c-1 132 -1 246 -1 253 0 6 0 66 0
132 0 66 0 128 0 138 0 9 0 40 0 67 0 28 0 75 0 105 2 268 1 323 -4 329 -9 9
-2528 6 -2600 -3 -33 -4 -71 -9 -85 -11 -44 -7 -163 -42 -225 -66 -33 -13 -62
-24 -65 -25 -29 -7 -110 -49 -110 -56 0 -5 -4 -7 -8 -4 -5 3 -32 -10 -60 -28
-28 -19 -55 -35 -60 -37 -27 -10 -197 -168 -237 -221 -6 -7 -24 -31 -40 -53
-17 -22 -33 -42 -38 -43 -4 -2 -5 -8 -1 -13 3 -5 -1 -12 -10 -15 -8 -3 -18
-19 -21 -35 -4 -16 -10 -29 -13 -29 -4 0 -12 -12 -19 -27 -6 -16 -23 -53 -36
-83 -20 -46 -27 -67 -42 -120 -44 -160 -50 -302 -19 -495 4 -29 10 -55 25
-105 7 -25 14 -53 16 -63 2 -10 12 -36 23 -57 11 -22 18 -40 16 -40 -3 0 15
-41 40 -91 49 -99 115 -203 165 -259 17 -19 47 -53 66 -75 48 -54 234 -254
307 -329 79 -82 90 -100 77 -124 -6 -11 -21 -22 -33 -25 -36 -7 -2019 0 -2058
8 -85 17 -143 74 -118 115 7 11 19 22 27 25 12 5 138 86 166 107 138 105 194
155 261 233 140 166 224 373 250 614 11 103 5 319 -10 386 -2 11 -9 43 -16 70
-73 330 -322 639 -646 804 -34 17 -67 31 -73 31 -6 0 -11 5 -11 10 0 6 -6 10
-13 10 -8 0 -42 11 -76 25 -75 31 -299 88 -316 81 -7 -2 -16 -2 -19 2 -4 3
-14 8 -24 10 -9 2 -653 4 -1430 5 -1406 2 -1412 2 -1413 -18z m2439 -1098 c17
-1 32 -5 32 -9 0 -5 3 -7 8 -7 4 1 10 0 15 -1 4 -1 10 -3 15 -4 22 -5 90 -60
106 -87 63 -106 50 -234 -30 -314 -26 -25 -51 -45 -58 -45 -6 0 -22 -6 -36
-13 -18 -9 -77 -12 -200 -12 -108 0 -178 -3 -182 -10 -5 -7 -8 -7 -8 0 0 7
-88 10 -256 10 -197 0 -258 2 -266 12 -7 9 -11 87 -10 221 0 268 -1 252 21
260 17 6 755 5 849 -1z"/>
</g>
</svg>
